<svg width="151" height="84" viewBox="0 0 151 84" fill="none" xmlns="http://www.w3.org/2000/svg">
<path d="M10.9773 56.0682V71H2.64205V36.0909H10.7045V49.625H10.9943C11.5852 48.0114 12.5511 46.75 13.892 45.8409C15.2443 44.9318 16.8977 44.4773 18.8523 44.4773C20.6932 44.4773 22.2955 44.8864 23.6591 45.7045C25.0227 46.5114 26.0795 47.6534 26.8295 49.1307C27.5909 50.608 27.9659 52.3352 27.9545 54.3125V71H19.6193V55.9489C19.6307 54.4943 19.267 53.358 18.5284 52.5398C17.7898 51.7216 16.75 51.3125 15.4091 51.3125C14.5341 51.3125 13.7614 51.5057 13.0909 51.892C12.4318 52.267 11.9148 52.8068 11.5398 53.5114C11.1761 54.2159 10.9886 55.0682 10.9773 56.0682ZM40.5384 71.4432C38.8679 71.4432 37.3849 71.1648 36.0895 70.608C34.8054 70.0398 33.7884 69.1875 33.0384 68.0511C32.2997 66.9034 31.9304 65.4659 31.9304 63.7386C31.9304 62.2841 32.1861 61.0568 32.6974 60.0568C33.2088 59.0568 33.9134 58.2443 34.8111 57.6193C35.7088 56.9943 36.7429 56.5227 37.9134 56.2045C39.0838 55.875 40.3338 55.6534 41.6634 55.5398C43.152 55.4034 44.3509 55.2614 45.2599 55.1136C46.169 54.9545 46.8281 54.733 47.2372 54.4489C47.6577 54.1534 47.8679 53.7386 47.8679 53.2045V53.1193C47.8679 52.2443 47.5668 51.5682 46.9645 51.0909C46.3622 50.6136 45.5497 50.375 44.527 50.375C43.4247 50.375 42.5384 50.6136 41.8679 51.0909C41.1974 51.5682 40.7713 52.2273 40.5895 53.0682L32.902 52.7955C33.1293 51.2045 33.7145 49.7841 34.6577 48.5341C35.6122 47.2727 36.919 46.2841 38.5781 45.5682C40.2486 44.8409 42.2543 44.4773 44.5952 44.4773C46.2656 44.4773 47.8054 44.6761 49.2145 45.0739C50.6236 45.4602 51.8509 46.0284 52.8963 46.7784C53.9418 47.517 54.7486 48.4261 55.3168 49.5057C55.8963 50.5852 56.1861 51.8182 56.1861 53.2045V71H48.3452V67.3523H48.1406C47.6747 68.2386 47.0781 68.9886 46.3509 69.6023C45.6349 70.2159 44.7884 70.6761 43.8111 70.983C42.8452 71.2898 41.7543 71.4432 40.5384 71.4432ZM43.1122 65.9886C44.0099 65.9886 44.8168 65.8068 45.5327 65.4432C46.2599 65.0795 46.8395 64.5795 47.2713 63.9432C47.7031 63.2955 47.919 62.5455 47.919 61.6932V59.2045C47.6804 59.3295 47.3906 59.4432 47.0497 59.5455C46.7202 59.6477 46.3565 59.7443 45.9588 59.8352C45.5611 59.9261 45.152 60.0057 44.7315 60.0739C44.3111 60.142 43.9077 60.2045 43.5213 60.2614C42.7372 60.3864 42.0668 60.5795 41.5099 60.8409C40.9645 61.1023 40.544 61.4432 40.2486 61.8636C39.9645 62.2727 39.8224 62.7614 39.8224 63.3295C39.8224 64.1932 40.1293 64.8523 40.7429 65.3068C41.3679 65.7614 42.1577 65.9886 43.1122 65.9886ZM61.2827 71V36.0909H69.6179V49.3011H69.7884C70.1293 48.5057 70.6122 47.7386 71.2372 47C71.8736 46.2614 72.6804 45.6591 73.6577 45.1932C74.6463 44.7159 75.8281 44.4773 77.2031 44.4773C79.0213 44.4773 80.7202 44.9545 82.2997 45.9091C83.8906 46.8636 85.1747 48.3352 86.152 50.3239C87.1293 52.3125 87.6179 54.8466 87.6179 57.9261C87.6179 60.892 87.1463 63.375 86.2031 65.375C85.2713 67.375 84.0099 68.875 82.419 69.875C80.8395 70.875 79.0838 71.375 77.152 71.375C75.8338 71.375 74.6918 71.1591 73.7259 70.7273C72.7599 70.2955 71.9474 69.7273 71.2884 69.0227C70.6406 68.3182 70.1406 67.5625 69.7884 66.7557H69.5327V71H61.2827ZM69.4474 57.9091C69.4474 59.3182 69.6349 60.5455 70.0099 61.5909C70.3963 62.6364 70.9474 63.4489 71.6634 64.0284C72.3906 64.5966 73.2599 64.8807 74.2713 64.8807C75.294 64.8807 76.1634 64.5966 76.8793 64.0284C77.5952 63.4489 78.1349 62.6364 78.4986 61.5909C78.8736 60.5455 79.0611 59.3182 79.0611 57.9091C79.0611 56.5 78.8736 55.2784 78.4986 54.2443C78.1349 53.2102 77.5952 52.4091 76.8793 51.8409C76.1747 51.2727 75.3054 50.9886 74.2713 50.9886C73.2486 50.9886 72.3793 51.267 71.6634 51.8239C70.9474 52.3807 70.3963 53.1761 70.0099 54.2102C69.6349 55.2443 69.4474 56.4773 69.4474 57.9091ZM91.9858 71V44.8182H100.321V71H91.9858ZM96.1619 41.767C94.9915 41.767 93.9858 41.3807 93.1449 40.608C92.304 39.8239 91.8835 38.8807 91.8835 37.7784C91.8835 36.6875 92.304 35.7557 93.1449 34.983C93.9858 34.1989 94.9915 33.8068 96.1619 33.8068C97.3438 33.8068 98.3494 34.1989 99.179 34.983C100.02 35.7557 100.44 36.6875 100.44 37.7784C100.44 38.8807 100.02 39.8239 99.179 40.608C98.3494 41.3807 97.3438 41.767 96.1619 41.767ZM120.405 44.8182V50.9545H103.888V44.8182H120.405ZM107.348 38.5455H115.683V62.767C115.683 63.2784 115.763 63.6932 115.922 64.0114C116.092 64.3182 116.337 64.5398 116.655 64.6761C116.973 64.8011 117.354 64.8636 117.797 64.8636C118.115 64.8636 118.45 64.8352 118.803 64.7784C119.166 64.7102 119.439 64.6534 119.621 64.608L120.882 70.625C120.484 70.7386 119.922 70.8807 119.195 71.0511C118.479 71.2216 117.621 71.3295 116.621 71.375C114.666 71.4659 112.99 71.2386 111.592 70.6932C110.206 70.1364 109.143 69.2727 108.405 68.1023C107.678 66.9318 107.325 65.4602 107.348 63.6875V38.5455ZM147.188 52.8125L139.534 53.017C139.455 52.4716 139.239 51.9886 138.886 51.5682C138.534 51.1364 138.074 50.8011 137.506 50.5625C136.949 50.3125 136.301 50.1875 135.562 50.1875C134.597 50.1875 133.773 50.3807 133.091 50.767C132.42 51.1534 132.091 51.6761 132.102 52.3352C132.091 52.8466 132.295 53.2898 132.716 53.6648C133.148 54.0398 133.915 54.3409 135.017 54.5682L140.062 55.5227C142.676 56.0227 144.619 56.8523 145.892 58.0114C147.176 59.1705 147.824 60.7045 147.835 62.6136C147.824 64.4091 147.29 65.9716 146.233 67.3011C145.188 68.6307 143.756 69.6648 141.938 70.4034C140.119 71.1307 138.04 71.4943 135.699 71.4943C131.96 71.4943 129.011 70.7273 126.852 69.1932C124.705 67.6477 123.477 65.5795 123.17 62.9886L131.403 62.7841C131.585 63.7386 132.057 64.4659 132.818 64.9659C133.58 65.4659 134.551 65.7159 135.733 65.7159C136.801 65.7159 137.67 65.517 138.341 65.1193C139.011 64.7216 139.352 64.1932 139.364 63.5341C139.352 62.9432 139.091 62.4716 138.58 62.1193C138.068 61.7557 137.267 61.4716 136.176 61.267L131.608 60.3977C128.983 59.9205 127.028 59.0398 125.744 57.7557C124.46 56.4602 123.824 54.8125 123.835 52.8125C123.824 51.0625 124.29 49.5682 125.233 48.3295C126.176 47.0795 127.517 46.125 129.256 45.4659C130.994 44.8068 133.045 44.4773 135.409 44.4773C138.955 44.4773 141.75 45.2216 143.795 46.7102C145.841 48.1875 146.972 50.2216 147.188 52.8125Z" fill="white"/>
<path d="M10.9773 56.0682L9.97727 56.0568V56.0682H10.9773ZM10.9773 71V72H11.9773V71H10.9773ZM2.64205 71H1.64205V72H2.64205V71ZM2.64205 36.0909V35.0909H1.64205V36.0909H2.64205ZM10.7045 36.0909H11.7045V35.0909H10.7045V36.0909ZM10.7045 49.625H9.70455V50.625H10.7045V49.625ZM10.9943 49.625V50.625H11.6931L11.9333 49.9689L10.9943 49.625ZM13.892 45.8409L13.3341 45.011L13.3309 45.0132L13.892 45.8409ZM23.6591 45.7045L23.1446 46.5621L23.1499 46.5652L23.6591 45.7045ZM26.8295 49.1307L25.9379 49.5834L25.9407 49.5888L26.8295 49.1307ZM27.9545 54.3125L26.9545 54.3068V54.3125H27.9545ZM27.9545 71V72H28.9545V71H27.9545ZM19.6193 71H18.6193V72H19.6193V71ZM19.6193 55.9489L18.6193 55.9411V55.9489H19.6193ZM18.5284 52.5398L17.7861 53.2099L18.5284 52.5398ZM13.0909 51.892L13.5854 52.7612L13.5902 52.7585L13.0909 51.892ZM11.5398 53.5114L10.657 53.0415L10.6512 53.0527L11.5398 53.5114ZM9.97727 56.0682V71H11.9773V56.0682H9.97727ZM10.9773 70H2.64205V72H10.9773V70ZM3.64205 71V36.0909H1.64205V71H3.64205ZM2.64205 37.0909H10.7045V35.0909H2.64205V37.0909ZM9.70455 36.0909V49.625H11.7045V36.0909H9.70455ZM10.7045 50.625H10.9943V48.625H10.7045V50.625ZM11.9333 49.9689C12.4568 48.5394 13.2967 47.4527 14.4532 46.6686L13.3309 45.0132C11.8055 46.0473 10.7137 47.4833 10.0553 49.2811L11.9333 49.9689ZM14.45 46.6708C15.6068 45.8931 17.0562 45.4773 18.8523 45.4773V43.4773C16.7393 43.4773 14.8819 43.9705 13.3341 45.011L14.45 46.6708ZM18.8523 45.4773C20.5409 45.4773 21.9595 45.851 23.1446 46.562L24.1736 44.8471C22.6314 43.9217 20.8454 43.4773 18.8523 43.4773V45.4773ZM23.1499 46.5652C24.3422 47.2706 25.2698 48.2676 25.9379 49.5834L27.7212 48.678C26.8892 47.0393 25.7033 45.7521 24.1683 44.8439L23.1499 46.5652ZM25.9407 49.5888C26.6153 50.8978 26.9652 52.4603 26.9546 54.3068L28.9545 54.3182C28.9666 52.2101 28.5665 50.3181 27.7184 48.6726L25.9407 49.5888ZM26.9545 54.3125V71H28.9545V54.3125H26.9545ZM27.9545 70H19.6193V72H27.9545V70ZM20.6193 71V55.9489H18.6193V71H20.6193ZM20.6193 55.9567C20.632 54.3337 20.2248 52.9266 19.2707 51.8697L17.7861 53.2099C18.3093 53.7894 18.6294 54.6549 18.6194 55.9411L20.6193 55.9567ZM19.2707 51.8697C18.3021 50.7968 16.9666 50.3125 15.4091 50.3125V52.3125C16.5334 52.3125 17.2774 52.6464 17.7861 53.2099L19.2707 51.8697ZM15.4091 50.3125C14.3822 50.3125 13.4329 50.5408 12.5916 51.0256L13.5902 52.7585C14.0898 52.4706 14.686 52.3125 15.4091 52.3125V50.3125ZM12.5964 51.0229C11.7638 51.4966 11.1161 52.179 10.657 53.0415L12.4225 53.9812C12.7134 53.4346 13.0998 53.0375 13.5854 52.7612L12.5964 51.0229ZM10.6512 53.0527C10.1999 53.927 9.99002 54.9407 9.97734 56.0568L11.9772 56.0795C11.9873 55.1956 12.1524 54.5048 12.4284 53.97L10.6512 53.0527ZM36.0895 70.608L35.6848 71.5225L35.6946 71.5267L36.0895 70.608ZM33.0384 68.0511L32.1974 68.5924L32.2037 68.602L33.0384 68.0511ZM32.6974 60.0568L31.8071 59.6015L32.6974 60.0568ZM34.8111 57.6193L35.3825 58.44L34.8111 57.6193ZM37.9134 56.2045L38.1757 57.1696L38.1844 57.1671L37.9134 56.2045ZM41.6634 55.5398L41.7485 56.5362L41.7546 56.5356L41.6634 55.5398ZM45.2599 55.1136L45.4204 56.1008L45.4323 56.0987L45.2599 55.1136ZM47.2372 54.4489L47.8076 55.2702L47.8122 55.2671L47.2372 54.4489ZM46.9645 51.0909L47.5856 50.3072L46.9645 51.0909ZM41.8679 51.0909L41.288 50.2762V50.2762L41.8679 51.0909ZM40.5895 53.0682L40.554 54.0676L41.3901 54.0972L41.5669 53.2795L40.5895 53.0682ZM32.902 52.7955L31.912 52.654L31.7547 53.7554L32.8665 53.7948L32.902 52.7955ZM34.6577 48.5341L33.8603 47.9306L33.8594 47.9318L34.6577 48.5341ZM38.5781 45.5682L38.9743 46.4864L38.9773 46.4851L38.5781 45.5682ZM49.2145 45.0739L48.9428 46.0363L48.9501 46.0383L49.2145 45.0739ZM52.8963 46.7784L52.3134 47.591L52.3193 47.5951L52.8963 46.7784ZM55.3168 49.5057L54.4318 49.9714L54.4357 49.9787L55.3168 49.5057ZM56.1861 71V72H57.1861V71H56.1861ZM48.3452 71H47.3452V72H48.3452V71ZM48.3452 67.3523H49.3452V66.3523H48.3452V67.3523ZM48.1406 67.3523V66.3523H47.5365L47.2555 66.887L48.1406 67.3523ZM46.3509 69.6023L45.706 68.838L45.7001 68.843L46.3509 69.6023ZM43.8111 70.983L43.5115 70.0289L43.5083 70.0299L43.8111 70.983ZM45.5327 65.4432L45.0854 64.5487L45.0798 64.5516L45.5327 65.4432ZM47.2713 63.9432L48.0988 64.5047L48.1034 64.4979L47.2713 63.9432ZM47.919 59.2045H48.919V57.5519L47.455 58.3187L47.919 59.2045ZM47.0497 59.5455L46.7624 58.5876L46.7533 58.5904L47.0497 59.5455ZM44.7315 60.0739L44.8916 61.061L44.7315 60.0739ZM43.5213 60.2614L43.3758 59.2719L43.3639 59.2738L43.5213 60.2614ZM41.5099 60.8409L41.085 59.9356L41.0778 59.9391L41.5099 60.8409ZM40.2486 61.8636L39.4304 61.2887L39.4272 61.2932L40.2486 61.8636ZM40.7429 65.3068L40.1476 66.1104L40.1547 66.1156L40.7429 65.3068ZM40.5384 70.4432C38.979 70.4432 37.6343 70.1835 36.4844 69.6892L35.6946 71.5267C37.1356 72.1461 38.7568 72.4432 40.5384 72.4432V70.4432ZM36.4941 69.6935C35.3794 69.2003 34.514 68.4716 33.873 67.5003L32.2037 68.602C33.0627 69.9034 34.2314 70.8793 35.6849 71.5224L36.4941 69.6935ZM33.8793 67.51C33.2689 66.5615 32.9304 65.3246 32.9304 63.7386H30.9304C30.9304 65.6072 31.3306 67.2453 32.1974 68.5923L33.8793 67.51ZM32.9304 63.7386C32.9304 62.3972 33.1666 61.3358 33.5878 60.5121L31.8071 59.6015C31.2056 60.7778 30.9304 62.171 30.9304 63.7386H32.9304ZM33.5878 60.5121C34.0265 59.6542 34.6231 58.9687 35.3825 58.44L34.2397 56.7986C33.2036 57.52 32.3911 58.4595 31.8071 59.6015L33.5878 60.5121ZM35.3825 58.44C36.1765 57.8872 37.1038 57.4609 38.1757 57.1695L37.651 55.2396C36.382 55.5845 35.2411 56.1015 34.2397 56.7986L35.3825 58.44ZM38.1844 57.1671C39.2885 56.8562 40.4758 56.6449 41.7485 56.5361L41.5782 54.5434C40.1918 54.6619 38.8791 54.8938 37.6423 55.242L38.1844 57.1671ZM41.7546 56.5356C43.254 56.3982 44.4787 56.2537 45.4203 56.1007L45.0995 54.1266C44.223 54.269 43.0499 54.4086 41.5721 54.5439L41.7546 56.5356ZM45.4323 56.0987C46.3828 55.9323 47.2166 55.6807 47.8076 55.2702L46.6668 53.6275C46.4397 53.7852 45.9553 53.9768 45.0876 54.1286L45.4323 56.0987ZM47.8122 55.2671C48.5113 54.7758 48.8679 54.0491 48.8679 53.2045H46.8679C46.8679 53.4282 46.8041 53.531 46.6623 53.6307L47.8122 55.2671ZM48.8679 53.2045V53.1193H46.8679V53.2045H48.8679ZM48.8679 53.1193C48.8679 51.9868 48.4624 51.002 47.5856 50.3072L46.3434 51.8747C46.6711 52.1344 46.8679 52.5018 46.8679 53.1193H48.8679ZM47.5856 50.3072C46.7558 49.6496 45.7006 49.375 44.527 49.375V51.375C45.3989 51.375 45.9686 51.5776 46.3434 51.8747L47.5856 50.3072ZM44.527 49.375C43.2864 49.375 42.1768 49.6435 41.288 50.2762L42.4478 51.9056C42.9 51.5837 43.5631 51.375 44.527 51.375V49.375ZM41.288 50.2762C40.4046 50.9051 39.8439 51.7845 39.6121 52.8568L41.5669 53.2795C41.6987 52.6701 41.9903 52.2312 42.4478 51.9056L41.288 50.2762ZM40.6249 52.0688L32.9374 51.7961L32.8665 53.7948L40.554 54.0676L40.6249 52.0688ZM33.8919 52.9369C34.096 51.5087 34.6173 50.2478 35.4559 49.1364L33.8594 47.9318C32.8116 49.3204 32.1626 50.9003 31.912 52.654L33.8919 52.9369ZM35.4551 49.1375C36.2912 48.0326 37.451 47.1437 38.9743 46.4863L38.1819 44.65C36.3871 45.4245 34.9332 46.5129 33.8603 47.9306L35.4551 49.1375ZM38.9773 46.4851C40.4914 45.8258 42.3541 45.4773 44.5952 45.4773V43.4773C42.1545 43.4773 40.0057 43.856 38.1789 44.6513L38.9773 46.4851ZM44.5952 45.4773C46.1864 45.4773 47.6336 45.6667 48.9428 46.0363L49.4861 44.1115C47.9772 43.6856 46.3448 43.4773 44.5952 43.4773V45.4773ZM48.9501 46.0383C50.2602 46.3975 51.3764 46.9187 52.3134 47.5909L53.4792 45.9659C52.3253 45.1381 50.987 44.523 49.4789 44.1095L48.9501 46.0383ZM52.3193 47.5951C53.2424 48.2473 53.9408 49.0385 54.4318 49.9714L56.2017 49.0399C55.5564 47.8138 54.6411 46.7868 53.4733 45.9617L52.3193 47.5951ZM54.4357 49.9787C54.9274 50.8946 55.1861 51.9613 55.1861 53.2045H57.1861C57.1861 51.6751 56.8652 50.2759 56.1978 49.0327L54.4357 49.9787ZM55.1861 53.2045V71H57.1861V53.2045H55.1861ZM56.1861 70H48.3452V72H56.1861V70ZM49.3452 71V67.3523H47.3452V71H49.3452ZM48.3452 66.3523H48.1406V68.3523H48.3452V66.3523ZM47.2555 66.887C46.8464 67.6652 46.3295 68.3119 45.706 68.838L46.9957 70.3666C47.8267 69.6654 48.503 68.8121 49.0258 67.8176L47.2555 66.887ZM45.7001 68.843C45.0954 69.3613 44.371 69.759 43.5115 70.0289L44.1106 71.937C45.2057 71.5932 46.1744 71.0706 47.0016 70.3615L45.7001 68.843ZM43.5083 70.0299C42.6576 70.3001 41.6714 70.4432 40.5384 70.4432V72.4432C41.8371 72.4432 43.0327 72.2794 44.1138 71.936L43.5083 70.0299ZM43.1122 66.9886C44.1485 66.9886 45.1135 66.7777 45.9855 66.3348L45.0798 64.5516C44.5201 64.8359 43.8714 64.9886 43.1122 64.9886V66.9886ZM45.9799 66.3376C46.8512 65.9019 47.5653 65.2909 48.0988 64.5047L46.4438 63.3817C46.1137 63.8682 45.6687 64.2572 45.0855 64.5488L45.9799 66.3376ZM48.1034 64.4979C48.655 63.6704 48.919 62.7234 48.919 61.6932H46.919C46.919 62.3675 46.7512 62.9205 46.4393 63.3885L48.1034 64.4979ZM48.919 61.6932V59.2045H46.919V61.6932H48.919ZM47.455 58.3187C47.2875 58.4065 47.0604 58.4982 46.7624 58.5876L47.3371 60.5033C47.7208 60.3881 48.0733 60.2526 48.383 60.0904L47.455 58.3187ZM46.7533 58.5904C46.4519 58.6839 46.1133 58.7741 45.736 58.8604L46.1816 60.8101C46.5998 60.7145 46.9884 60.6115 47.3461 60.5005L46.7533 58.5904ZM45.736 58.8604C45.3599 58.9463 44.9718 59.0218 44.5715 59.0868L44.8916 61.061C45.3322 60.9895 45.7622 60.9059 46.1816 60.8101L45.736 58.8604ZM44.5715 59.0868C44.1554 59.1542 43.7569 59.216 43.3758 59.272L43.6668 61.2507C44.0584 61.1931 44.4667 61.1299 44.8916 61.061L44.5715 59.0868ZM43.3639 59.2738C42.5126 59.4095 41.7472 59.6249 41.085 59.9357L41.9348 61.7461C42.3863 61.5342 42.9619 61.3632 43.6787 61.2489L43.3639 59.2738ZM41.0778 59.9391C40.4053 60.2614 39.8405 60.705 39.4304 61.2887L41.0668 62.4386C41.2475 62.1814 41.5237 61.9432 41.9421 61.7427L41.0778 59.9391ZM39.4272 61.2932C39.0109 61.8927 38.8224 62.5872 38.8224 63.3295H40.8224C40.8224 62.9355 40.918 62.6528 41.07 62.434L39.4272 61.2932ZM38.8224 63.3295C38.8224 64.4624 39.2435 65.4406 40.1477 66.1104L41.3381 64.5033C41.0151 64.264 40.8224 63.9239 40.8224 63.3295H38.8224ZM40.1547 66.1156C40.9874 66.7211 41.9968 66.9886 43.1122 66.9886V64.9886C42.3186 64.9886 41.7484 64.8016 41.3311 64.4981L40.1547 66.1156ZM61.2827 71H60.2827V72H61.2827V71ZM61.2827 36.0909V35.0909H60.2827V36.0909H61.2827ZM69.6179 36.0909H70.6179V35.0909H69.6179V36.0909ZM69.6179 49.3011H68.6179V50.3011H69.6179V49.3011ZM69.7884 49.3011V50.3011H70.4477L70.7075 49.6951L69.7884 49.3011ZM71.2372 47L70.4796 46.3473L70.4738 46.3541L71.2372 47ZM73.6577 45.1932L74.088 46.0959L74.0924 46.0937L73.6577 45.1932ZM82.2997 45.9091L81.7825 46.765L81.7852 46.7666L82.2997 45.9091ZM86.152 50.3239L87.0495 49.8828L86.152 50.3239ZM86.2031 65.375L85.2986 64.9485L85.2967 64.9527L86.2031 65.375ZM82.419 69.875L81.8869 69.0284L81.8841 69.0301L82.419 69.875ZM73.7259 70.7273L73.3177 71.6402L73.7259 70.7273ZM71.2884 69.0227L70.5522 69.6996L70.5581 69.7059L71.2884 69.0227ZM69.7884 66.7557L70.7048 66.3555L70.4429 65.7557H69.7884V66.7557ZM69.5327 66.7557V65.7557H68.5327V66.7557H69.5327ZM69.5327 71V72H70.5327V71H69.5327ZM70.0099 61.5909L69.0686 61.9286L69.0719 61.9376L70.0099 61.5909ZM71.6634 64.0284L71.0342 64.8057L71.0409 64.8111L71.0477 64.8164L71.6634 64.0284ZM76.8793 64.0284L77.5009 64.8117L77.5085 64.8057L76.8793 64.0284ZM78.4986 61.5909L77.5573 61.2533L77.5541 61.2624L78.4986 61.5909ZM78.4986 54.2443L77.5552 54.5761L77.5585 54.5852L78.4986 54.2443ZM76.8793 51.8409L76.2515 52.6193L76.2576 52.6242L76.8793 51.8409ZM71.6634 51.8239L71.0494 51.0345L71.6634 51.8239ZM70.0099 54.2102L69.0732 53.8602L69.0698 53.8693L70.0099 54.2102ZM62.2827 71V36.0909H60.2827V71H62.2827ZM61.2827 37.0909H69.6179V35.0909H61.2827V37.0909ZM68.6179 36.0909V49.3011H70.6179V36.0909H68.6179ZM69.6179 50.3011H69.7884V48.3011H69.6179V50.3011ZM70.7075 49.6951C71.005 49.0009 71.4323 48.3176 72.0006 47.6459L70.4738 46.3541C69.7922 47.1597 69.2535 48.0104 68.8692 48.9072L70.7075 49.6951ZM71.9948 47.6527C72.5311 47.0303 73.2221 46.5087 74.088 46.0958L73.2273 44.2905C72.1387 44.8095 71.2161 45.4925 70.4796 46.3473L71.9948 47.6527ZM74.0924 46.0937C74.9157 45.6963 75.9417 45.4773 77.2031 45.4773V43.4773C75.7146 43.4773 74.3769 43.7355 73.2229 44.2926L74.0924 46.0937ZM77.2031 45.4773C78.8361 45.4773 80.3565 45.9032 81.7825 46.7649L82.8169 45.0532C81.0838 44.0059 79.2065 43.4773 77.2031 43.4773V45.4773ZM81.7852 46.7666C83.1813 47.6042 84.3454 48.9151 85.2545 50.7649L87.0495 49.8828C86.004 47.7554 84.6 46.123 82.8142 45.0516L81.7852 46.7666ZM85.2545 50.7649C86.1433 52.5736 86.6179 54.9434 86.6179 57.9261H88.6179C88.6179 54.7498 88.1152 52.0514 87.0495 49.8828L85.2545 50.7649ZM86.6179 57.9261C86.6179 60.7924 86.1613 63.1192 85.2987 64.9485L87.1076 65.8015C88.1313 63.6308 88.6179 60.9917 88.6179 57.9261H86.6179ZM85.2967 64.9527C84.4317 66.8091 83.2881 68.1476 81.8869 69.0284L82.9512 70.7216C84.7318 69.6024 86.1109 67.9409 87.1096 65.7973L85.2967 64.9527ZM81.8841 69.0301C80.4701 69.9253 78.9011 70.375 77.152 70.375V72.375C79.2665 72.375 81.2088 71.8247 82.9539 70.7199L81.8841 69.0301ZM77.152 70.375C75.9409 70.375 74.944 70.1765 74.134 69.8144L73.3177 71.6402C74.4395 72.1417 75.7267 72.375 77.152 72.375V70.375ZM74.134 69.8144C73.2779 69.4316 72.5783 68.9378 72.0186 68.3396L70.5581 69.7059C71.3166 70.5167 72.242 71.1593 73.3177 71.6402L74.134 69.8144ZM72.0245 68.3459C71.4453 67.7159 71.009 67.0523 70.7048 66.3555L68.8719 67.1558C69.2722 68.0727 69.836 68.9205 70.5522 69.6995L72.0245 68.3459ZM69.7884 65.7557H69.5327V67.7557H69.7884V65.7557ZM68.5327 66.7557V71H70.5327V66.7557H68.5327ZM69.5327 70H61.2827V72H69.5327V70ZM68.4474 57.9091C68.4474 59.4037 68.646 60.7501 69.0687 61.9285L70.9512 61.2533C70.6239 60.3408 70.4474 59.2326 70.4474 57.9091H68.4474ZM69.0719 61.9376C69.5075 63.1162 70.1517 64.0913 71.0342 64.8057L72.2925 63.2512C71.7431 62.8064 71.2851 62.1565 70.9479 61.2443L69.0719 61.9376ZM71.0477 64.8164C71.9679 65.5353 73.0595 65.8807 74.2713 65.8807V63.8807C73.4604 63.8807 72.8134 63.6579 72.279 63.2404L71.0477 64.8164ZM74.2713 65.8807C75.4914 65.8807 76.5872 65.5369 77.5009 64.8117L76.2576 63.2451C75.7396 63.6563 75.0967 63.8807 74.2713 63.8807V65.8807ZM77.5085 64.8057C78.3961 64.0871 79.0306 63.1052 79.4431 61.9194L77.5541 61.2624C77.2392 62.1676 76.7943 62.8106 76.2501 63.2512L77.5085 64.8057ZM79.4399 61.9285C79.8626 60.7501 80.0611 59.4037 80.0611 57.9091H78.0611C78.0611 59.2326 77.8846 60.3408 77.5573 61.2533L79.4399 61.9285ZM80.0611 57.9091C80.0611 56.4148 79.8627 55.0726 79.4387 53.9034L77.5585 54.5852C77.8845 55.4842 78.0611 56.5852 78.0611 57.9091H80.0611ZM79.442 53.9126C79.0284 52.7364 78.3916 51.7645 77.5009 51.0576L76.2576 52.6242C76.7987 53.0537 77.2415 53.684 77.5552 54.5761L79.442 53.9126ZM77.507 51.0625C76.5997 50.3308 75.4995 49.9886 74.2713 49.9886V51.9886C75.1113 51.9886 75.7497 52.2147 76.2515 52.6193L77.507 51.0625ZM74.2713 49.9886C73.0561 49.9886 71.9631 50.3239 71.0494 51.0345L72.2773 52.6132C72.7955 52.2102 73.4411 51.9886 74.2713 51.9886V49.9886ZM71.0494 51.0345C70.1584 51.7275 69.5103 52.6904 69.0732 53.8602L70.9467 54.5602C71.2823 53.6619 71.7365 53.0339 72.2773 52.6132L71.0494 51.0345ZM69.0698 53.8693C68.6453 55.0401 68.4474 56.3942 68.4474 57.9091H70.4474C70.4474 56.5603 70.6246 55.4486 70.95 54.5511L69.0698 53.8693ZM91.9858 71H90.9858V72H91.9858V71ZM91.9858 44.8182V43.8182H90.9858V44.8182H91.9858ZM100.321 44.8182H101.321V43.8182H100.321V44.8182ZM100.321 71V72H101.321V71H100.321ZM93.1449 40.608L92.4629 41.3394L92.4683 41.3443L93.1449 40.608ZM93.1449 34.983L93.8215 35.7193L93.8269 35.7143L93.1449 34.983ZM99.179 34.983L98.492 35.7098L98.5023 35.7193L99.179 34.983ZM99.179 40.608L99.8606 41.3397L99.8609 41.3393L99.179 40.608ZM92.9858 71V44.8182H90.9858V71H92.9858ZM91.9858 45.8182H100.321V43.8182H91.9858V45.8182ZM99.321 44.8182V71H101.321V44.8182H99.321ZM100.321 70H91.9858V72H100.321V70ZM96.1619 40.767C95.2352 40.767 94.4729 40.4702 93.8215 39.8716L92.4683 41.3443C93.4987 42.2912 94.7478 42.767 96.1619 42.767V40.767ZM93.8269 39.8766C93.1789 39.2724 92.8835 38.5901 92.8835 37.7784H90.8835C90.8835 39.1712 91.429 40.3753 92.4629 41.3393L93.8269 39.8766ZM92.8835 37.7784C92.8835 36.9819 93.1758 36.3127 93.8215 35.7193L92.4683 34.2466C91.4322 35.1987 90.8835 36.3931 90.8835 37.7784H92.8835ZM93.8269 35.7143C94.479 35.1063 95.2395 34.8068 96.1619 34.8068V32.8068C94.7434 32.8068 93.4926 33.2914 92.4629 34.2516L93.8269 35.7143ZM96.1619 34.8068C97.0983 34.8068 97.8553 35.1078 98.4921 35.7097L99.8659 34.2562C98.8435 33.2899 97.5892 32.8068 96.1619 32.8068V34.8068ZM98.5023 35.7193C99.1481 36.3127 99.4403 36.9819 99.4403 37.7784H101.44C101.44 36.3931 100.892 35.1987 99.8556 34.2466L98.5023 35.7193ZM99.4403 37.7784C99.4403 38.5901 99.1449 39.2724 98.497 39.8766L99.8609 41.3393C100.895 40.3753 101.44 39.1712 101.44 37.7784H99.4403ZM98.4974 39.8762C97.8614 40.4686 97.1026 40.767 96.1619 40.767V42.767C97.5849 42.767 98.8375 42.2927 99.8606 41.3397L98.4974 39.8762ZM120.405 44.8182H121.405V43.8182H120.405V44.8182ZM120.405 50.9545V51.9545H121.405V50.9545H120.405ZM103.888 50.9545H102.888V51.9545H103.888V50.9545ZM103.888 44.8182V43.8182H102.888V44.8182H103.888ZM107.348 38.5455V37.5455H106.348V38.5455H107.348ZM115.683 38.5455H116.683V37.5455H115.683V38.5455ZM115.922 64.0114L115.027 64.4586L115.037 64.478L115.048 64.497L115.922 64.0114ZM116.655 64.6761L116.261 65.5953L116.275 65.6013L116.289 65.6069L116.655 64.6761ZM118.803 64.7784L118.962 65.7656L118.974 65.7636L118.987 65.7613L118.803 64.7784ZM119.621 64.608L120.599 64.4028L120.386 63.3858L119.378 63.6378L119.621 64.608ZM120.882 70.625L121.157 71.5865L122.052 71.3308L121.861 70.4198L120.882 70.625ZM119.195 71.0511L118.966 70.0775L118.963 70.0783L119.195 71.0511ZM116.621 71.375L116.575 70.376L116.574 70.3761L116.621 71.375ZM111.592 70.6932L111.22 71.6212L111.229 71.6248L111.592 70.6932ZM108.405 68.1023L107.555 68.6301L107.559 68.636L108.405 68.1023ZM107.348 63.6875L108.348 63.7003V63.6875H107.348ZM119.405 44.8182V50.9545H121.405V44.8182H119.405ZM120.405 49.9545H103.888V51.9545H120.405V49.9545ZM104.888 50.9545V44.8182H102.888V50.9545H104.888ZM103.888 45.8182H120.405V43.8182H103.888V45.8182ZM107.348 39.5455H115.683V37.5455H107.348V39.5455ZM114.683 38.5455V62.767H116.683V38.5455H114.683ZM114.683 62.767C114.683 63.3705 114.775 63.9543 115.027 64.4586L116.816 63.5642C116.75 63.432 116.683 63.1864 116.683 62.767H114.683ZM115.048 64.497C115.324 64.9946 115.736 65.3703 116.261 65.5953L117.049 63.757C116.937 63.7092 116.86 63.6417 116.796 63.5257L115.048 64.497ZM116.289 65.6069C116.753 65.789 117.264 65.8636 117.797 65.8636V63.8636C117.444 63.8636 117.193 63.8133 117.02 63.7454L116.289 65.6069ZM117.797 65.8636C118.174 65.8636 118.563 65.83 118.962 65.7656L118.643 63.7912C118.337 63.8405 118.056 63.8636 117.797 63.8636V65.8636ZM118.987 65.7613C119.355 65.6922 119.652 65.631 119.863 65.5781L119.378 63.6378C119.226 63.6758 118.977 63.7282 118.618 63.7955L118.987 65.7613ZM118.642 64.8131L119.903 70.8302L121.861 70.4198L120.599 64.4028L118.642 64.8131ZM120.607 69.6635C120.233 69.7705 119.688 69.9083 118.966 70.0775L119.423 72.0248C120.155 71.853 120.736 71.7067 121.157 71.5865L120.607 69.6635ZM118.963 70.0783C118.326 70.2301 117.533 70.3325 116.575 70.376L116.666 72.374C117.708 72.3266 118.632 72.2131 119.426 72.0239L118.963 70.0783ZM116.574 70.3761C114.719 70.4624 113.19 70.2432 111.956 69.7616L111.229 71.6248C112.79 72.2341 114.613 72.4694 116.667 72.3739L116.574 70.3761ZM111.965 69.7652C110.757 69.2802 109.868 68.5468 109.251 67.5686L107.559 68.636C108.419 69.9987 109.654 70.9925 111.22 71.6211L111.965 69.7652ZM109.254 67.5745C108.653 66.6067 108.327 65.3362 108.348 63.7003L106.348 63.6747C106.324 65.5842 106.702 67.257 107.555 68.63L109.254 67.5745ZM108.348 63.6875V38.5455H106.348V63.6875H108.348ZM147.188 52.8125L147.214 53.8121L148.272 53.7839L148.184 52.7295L147.188 52.8125ZM139.534 53.017L138.545 53.1614L138.673 54.0404L139.561 54.0167L139.534 53.017ZM138.886 51.5682L138.111 52.2004L138.12 52.2104L138.886 51.5682ZM137.506 50.5625L137.096 51.4748L137.107 51.4798L137.118 51.4845L137.506 50.5625ZM133.091 50.767L132.598 49.897L132.592 49.9006L133.091 50.767ZM132.102 52.3352L133.102 52.3574L133.102 52.3377L133.102 52.318L132.102 52.3352ZM132.716 53.6648L132.05 54.4111L132.06 54.4198L132.716 53.6648ZM135.017 54.5682L134.815 55.5476L134.823 55.5492L134.831 55.5508L135.017 54.5682ZM140.062 55.5227L140.25 54.5405L140.248 54.5402L140.062 55.5227ZM145.892 58.0114L145.219 58.7507L145.222 58.7537L145.892 58.0114ZM147.835 62.6136L148.835 62.62L148.835 62.6077L147.835 62.6136ZM146.233 67.3011L145.45 66.6789L145.447 66.683L146.233 67.3011ZM141.938 70.4034L142.309 71.3319L142.314 71.3299L141.938 70.4034ZM126.852 69.1932L126.268 70.0049L126.273 70.0084L126.852 69.1932ZM123.17 62.9886L123.146 61.9889L122.048 62.0162L122.177 63.1062L123.17 62.9886ZM131.403 62.7841L132.386 62.597L132.227 61.7633L131.379 61.7844L131.403 62.7841ZM132.818 64.9659L133.367 64.13L132.818 64.9659ZM138.341 65.1193L137.831 64.2593L138.341 65.1193ZM139.364 63.5341L140.363 63.5513L140.364 63.5331L140.363 63.5149L139.364 63.5341ZM138.58 62.1193L138 62.9343L138.006 62.9386L138.012 62.9428L138.58 62.1193ZM136.176 61.267L135.989 62.2494L135.992 62.2499L136.176 61.267ZM131.608 60.3977L131.795 59.4153L131.787 59.4139L131.608 60.3977ZM125.744 57.7557L125.034 58.4597L125.037 58.4628L125.744 57.7557ZM123.835 52.8125L124.835 52.8182L124.835 52.806L123.835 52.8125ZM125.233 48.3295L126.029 48.9354L126.031 48.9319L125.233 48.3295ZM129.256 45.4659L128.901 44.5308L129.256 45.4659ZM143.795 46.7102L143.207 47.5188L143.21 47.5209L143.795 46.7102ZM147.161 51.8129L139.507 52.0174L139.561 54.0167L147.214 53.8121L147.161 51.8129ZM140.524 52.8727C140.417 52.1448 140.125 51.4892 139.653 50.926L138.12 52.2104C138.352 52.488 138.492 52.7984 138.545 53.1614L140.524 52.8727ZM139.661 50.9361C139.195 50.3643 138.596 49.9357 137.893 49.6405L137.118 51.4845C137.552 51.6665 137.873 51.9084 138.111 52.2003L139.661 50.9361ZM137.915 49.6502C137.206 49.3316 136.413 49.1875 135.562 49.1875V51.1875C136.189 51.1875 136.692 51.2934 137.096 51.4748L137.915 49.6502ZM135.562 49.1875C134.464 49.1875 133.461 49.4078 132.598 49.897L133.584 51.6371C134.084 51.3536 134.73 51.1875 135.562 51.1875V49.1875ZM132.592 49.9006C131.672 50.4307 131.084 51.2597 131.102 52.3525L133.102 52.318C133.098 52.0925 133.169 51.8761 133.59 51.6335L132.592 49.9006ZM131.103 52.313C131.084 53.149 131.436 53.8635 132.05 54.4111L133.382 52.9185C133.155 52.7161 133.098 52.5442 133.102 52.3574L131.103 52.313ZM132.06 54.4198C132.696 54.9716 133.678 55.3132 134.815 55.5476L135.219 53.5888C134.151 53.3686 133.6 53.108 133.372 52.9097L132.06 54.4198ZM134.831 55.5508L139.877 56.5053L140.248 54.5402L135.203 53.5856L134.831 55.5508ZM139.875 56.5049C142.398 56.9877 144.138 57.766 145.219 58.7507L146.565 57.272C145.101 55.9385 142.954 55.0578 140.25 54.5405L139.875 56.5049ZM145.222 58.7537C146.275 59.7039 146.825 60.959 146.835 62.6196L148.835 62.6077C148.822 60.4501 148.078 58.637 146.562 57.2691L145.222 58.7537ZM146.835 62.6073C146.825 64.1927 146.359 65.535 145.45 66.6789L147.016 67.9234C148.22 66.4082 148.823 64.6255 148.835 62.62L146.835 62.6073ZM145.447 66.683C144.525 67.8554 143.244 68.7931 141.561 69.4769L142.314 71.3299C144.267 70.5364 145.85 69.406 147.019 67.9193L145.447 66.683ZM141.566 69.4749C139.887 70.1467 137.937 70.4943 135.699 70.4943V72.4943C138.143 72.4943 140.352 72.1147 142.309 71.3319L141.566 69.4749ZM135.699 70.4943C132.085 70.4943 129.365 69.7515 127.431 68.378L126.273 70.0084C128.658 71.703 131.835 72.4943 135.699 72.4943V70.4943ZM127.436 68.3815C125.513 66.9972 124.437 65.179 124.164 62.871L122.177 63.1062C122.518 65.9801 123.897 68.2983 126.268 70.0049L127.436 68.3815ZM123.195 63.9883L131.428 63.7838L131.379 61.7844L123.146 61.9889L123.195 63.9883ZM130.421 62.9712C130.65 64.172 131.265 65.1424 132.269 65.8018L133.367 64.13C132.848 63.7894 132.521 63.3053 132.386 62.597L130.421 62.9712ZM132.269 65.8018C133.236 66.4365 134.413 66.7159 135.733 66.7159V64.7159C134.689 64.7159 133.923 64.4953 133.367 64.13L132.269 65.8018ZM135.733 66.7159C136.917 66.7159 137.979 66.4965 138.851 65.9794L137.831 64.2593C137.362 64.5375 136.685 64.7159 135.733 64.7159V66.7159ZM138.851 65.9794C139.756 65.4425 140.345 64.6255 140.363 63.5513L138.364 63.5169C138.36 63.7609 138.267 64.0007 137.831 64.2593L138.851 65.9794ZM140.363 63.5149C140.346 62.5831 139.908 61.8199 139.147 61.2958L138.012 62.9428C138.274 63.1232 138.359 63.3033 138.364 63.5533L140.363 63.5149ZM139.159 61.3044C138.471 60.8153 137.501 60.498 136.36 60.2842L135.992 62.2499C137.034 62.4452 137.665 62.6961 138 62.9343L139.159 61.3044ZM136.363 60.2847L131.795 59.4154L131.421 61.3801L135.989 62.2494L136.363 60.2847ZM131.787 59.4139C129.273 58.9568 127.539 58.1359 126.451 57.0486L125.037 58.4628C126.518 59.9437 128.693 60.8842 131.429 61.3816L131.787 59.4139ZM126.455 57.0517C125.376 55.964 124.825 54.5807 124.835 52.8182L122.835 52.8068C122.823 55.0443 123.544 56.9564 125.034 58.4597L126.455 57.0517ZM124.835 52.806C124.825 51.2482 125.236 49.9764 126.029 48.9354L124.437 47.7237C123.344 49.1599 122.823 50.8768 122.835 52.819L124.835 52.806ZM126.031 48.9319C126.841 47.8586 128.014 47.0059 129.61 46.401L128.901 44.5308C127.02 45.2441 125.511 46.3005 124.435 47.7272L126.031 48.9319ZM129.61 46.401C131.209 45.7947 133.135 45.4773 135.409 45.4773V43.4773C132.956 43.4773 130.779 43.8189 128.901 44.5308L129.61 46.401ZM135.409 45.4773C138.826 45.4773 141.389 46.1956 143.207 47.5188L144.384 45.9017C142.111 44.2476 139.083 43.4773 135.409 43.4773V45.4773ZM143.21 47.5209C145.011 48.8214 145.998 50.5854 146.191 52.8955L148.184 52.7295C147.945 49.8578 146.671 47.5536 144.381 45.8995L143.21 47.5209Z" fill="black"/>
<rect x="0.5" y="0.5" width="15" height="15" rx="3.5" fill="#18181B" stroke="#27272A"/>
<rect x="20.5" y="0.5" width="15" height="15" rx="3.5" fill="#BAE6FD" stroke="#0284C7"/>
<rect x="40.5" y="0.5" width="15" height="15" rx="3.5" fill="#7DD3FC" stroke="#0369A1"/>
<rect x="60.5" y="0.5" width="15" height="15" rx="3.5" fill="#0284C7" stroke="#075985"/>
<rect x="80.5" y="0.5" width="15" height="15" rx="3.5" fill="#0369A1" stroke="#38BDF8"/>
<rect x="100.5" y="0.5" width="15" height="15" rx="3.5" fill="#075985" stroke="#0EA5E9"/>
<rect x="0.5" y="0.5" width="115" height="15" stroke="black"/>
</svg>
